<mxfile host="app.diagrams.net" agent="Mozilla/5.0 (Windows NT 10.0; Win64; x64) AppleWebKit/537.36 (KHTML, like Gecko) Chrome/127.0.0.0 Safari/537.36 OPR/113.0.0.0" version="24.8.3">
  <diagram name="Página-1" id="NmeDe92MbPshZo_H9-bI">
    <mxGraphModel dx="2220" dy="1965" grid="1" gridSize="10" guides="1" tooltips="1" connect="1" arrows="1" fold="1" page="1" pageScale="1" pageWidth="827" pageHeight="1169" math="0" shadow="0">
      <root>
        <mxCell id="0" />
        <mxCell id="1" parent="0" />
        <mxCell id="TXb0Ds1kzOKouGfnL_CO-3" style="edgeStyle=orthogonalEdgeStyle;rounded=0;orthogonalLoop=1;jettySize=auto;html=1;exitX=1;exitY=0.5;exitDx=0;exitDy=0;" parent="1" source="TXb0Ds1kzOKouGfnL_CO-1" target="TXb0Ds1kzOKouGfnL_CO-2" edge="1">
          <mxGeometry relative="1" as="geometry" />
        </mxCell>
        <mxCell id="TXb0Ds1kzOKouGfnL_CO-1" value="INICIO" style="ellipse;whiteSpace=wrap;html=1;" parent="1" vertex="1">
          <mxGeometry x="-170" y="210" width="120" height="80" as="geometry" />
        </mxCell>
        <mxCell id="gk5JpqyUfW0jtWOqaY3z-2" style="edgeStyle=orthogonalEdgeStyle;rounded=0;orthogonalLoop=1;jettySize=auto;html=1;exitX=0.5;exitY=0;exitDx=0;exitDy=0;entryX=0.5;entryY=1;entryDx=0;entryDy=0;" edge="1" parent="1" source="TXb0Ds1kzOKouGfnL_CO-2" target="gk5JpqyUfW0jtWOqaY3z-1">
          <mxGeometry relative="1" as="geometry" />
        </mxCell>
        <mxCell id="gk5JpqyUfW0jtWOqaY3z-3" style="edgeStyle=orthogonalEdgeStyle;rounded=0;orthogonalLoop=1;jettySize=auto;html=1;exitX=0.5;exitY=1;exitDx=0;exitDy=0;" edge="1" parent="1" source="TXb0Ds1kzOKouGfnL_CO-2" target="gk5JpqyUfW0jtWOqaY3z-4">
          <mxGeometry relative="1" as="geometry">
            <mxPoint x="150" y="390" as="targetPoint" />
          </mxGeometry>
        </mxCell>
        <mxCell id="TXb0Ds1kzOKouGfnL_CO-2" value="LISTAGEM DE ATIVOS" style="rounded=1;whiteSpace=wrap;html=1;" parent="1" vertex="1">
          <mxGeometry x="90" y="250" width="120" height="60" as="geometry" />
        </mxCell>
        <mxCell id="TXb0Ds1kzOKouGfnL_CO-13" style="edgeStyle=orthogonalEdgeStyle;rounded=0;orthogonalLoop=1;jettySize=auto;html=1;exitX=0.5;exitY=0;exitDx=0;exitDy=0;entryX=0.5;entryY=1;entryDx=0;entryDy=0;" parent="1" source="TXb0Ds1kzOKouGfnL_CO-20" target="TXb0Ds1kzOKouGfnL_CO-12" edge="1">
          <mxGeometry relative="1" as="geometry" />
        </mxCell>
        <mxCell id="TXb0Ds1kzOKouGfnL_CO-14" style="edgeStyle=orthogonalEdgeStyle;rounded=0;orthogonalLoop=1;jettySize=auto;html=1;exitX=0.75;exitY=0;exitDx=0;exitDy=0;entryX=0.417;entryY=1;entryDx=0;entryDy=0;entryPerimeter=0;" parent="1" source="TXb0Ds1kzOKouGfnL_CO-6" target="TXb0Ds1kzOKouGfnL_CO-15" edge="1">
          <mxGeometry relative="1" as="geometry">
            <mxPoint x="530" y="-40" as="targetPoint" />
            <Array as="points">
              <mxPoint x="480" y="180" />
              <mxPoint x="480" y="85" />
              <mxPoint x="564" y="85" />
            </Array>
          </mxGeometry>
        </mxCell>
        <mxCell id="TXb0Ds1kzOKouGfnL_CO-18" style="edgeStyle=orthogonalEdgeStyle;rounded=0;orthogonalLoop=1;jettySize=auto;html=1;exitX=0;exitY=0;exitDx=0;exitDy=0;" parent="1" source="TXb0Ds1kzOKouGfnL_CO-6" target="TXb0Ds1kzOKouGfnL_CO-19" edge="1">
          <mxGeometry relative="1" as="geometry">
            <mxPoint x="220" y="-70" as="targetPoint" />
            <Array as="points">
              <mxPoint x="337" y="70" />
              <mxPoint x="210" y="70" />
            </Array>
          </mxGeometry>
        </mxCell>
        <mxCell id="TXb0Ds1kzOKouGfnL_CO-6" value="BOTÕES" style="swimlane;fontStyle=0;childLayout=stackLayout;horizontal=1;startSize=30;horizontalStack=0;resizeParent=1;resizeParentMax=0;resizeLast=0;collapsible=1;marginBottom=0;whiteSpace=wrap;html=1;" parent="1" vertex="1">
          <mxGeometry x="350" y="260" width="140" height="150" as="geometry" />
        </mxCell>
        <mxCell id="TXb0Ds1kzOKouGfnL_CO-7" value="ATIVAR" style="text;strokeColor=none;fillColor=none;align=left;verticalAlign=middle;spacingLeft=4;spacingRight=4;overflow=hidden;points=[[0,0.5],[1,0.5]];portConstraint=eastwest;rotatable=0;whiteSpace=wrap;html=1;" parent="TXb0Ds1kzOKouGfnL_CO-6" vertex="1">
          <mxGeometry y="30" width="140" height="30" as="geometry" />
        </mxCell>
        <mxCell id="TXb0Ds1kzOKouGfnL_CO-8" value="INATIVAR" style="text;strokeColor=none;fillColor=none;align=left;verticalAlign=middle;spacingLeft=4;spacingRight=4;overflow=hidden;points=[[0,0.5],[1,0.5]];portConstraint=eastwest;rotatable=0;whiteSpace=wrap;html=1;" parent="TXb0Ds1kzOKouGfnL_CO-6" vertex="1">
          <mxGeometry y="60" width="140" height="30" as="geometry" />
        </mxCell>
        <mxCell id="TXb0Ds1kzOKouGfnL_CO-9" value="DELETAR" style="text;strokeColor=none;fillColor=none;align=left;verticalAlign=middle;spacingLeft=4;spacingRight=4;overflow=hidden;points=[[0,0.5],[1,0.5]];portConstraint=eastwest;rotatable=0;whiteSpace=wrap;html=1;" parent="TXb0Ds1kzOKouGfnL_CO-6" vertex="1">
          <mxGeometry y="90" width="140" height="30" as="geometry" />
        </mxCell>
        <mxCell id="TXb0Ds1kzOKouGfnL_CO-10" value="ALTERAR" style="text;strokeColor=none;fillColor=none;align=left;verticalAlign=middle;spacingLeft=4;spacingRight=4;overflow=hidden;points=[[0,0.5],[1,0.5]];portConstraint=eastwest;rotatable=0;whiteSpace=wrap;html=1;" parent="TXb0Ds1kzOKouGfnL_CO-6" vertex="1">
          <mxGeometry y="120" width="140" height="30" as="geometry" />
        </mxCell>
        <mxCell id="TXb0Ds1kzOKouGfnL_CO-11" style="edgeStyle=orthogonalEdgeStyle;rounded=0;orthogonalLoop=1;jettySize=auto;html=1;exitX=1;exitY=0.5;exitDx=0;exitDy=0;entryX=0.021;entryY=0.107;entryDx=0;entryDy=0;entryPerimeter=0;" parent="1" source="TXb0Ds1kzOKouGfnL_CO-2" target="TXb0Ds1kzOKouGfnL_CO-6" edge="1">
          <mxGeometry relative="1" as="geometry" />
        </mxCell>
        <mxCell id="TXb0Ds1kzOKouGfnL_CO-12" value="ATIVAR E DESATIVAR APARECE UM ALERTA DE CONFIRMAÇAO" style="rounded=1;whiteSpace=wrap;html=1;" parent="1" vertex="1">
          <mxGeometry x="340" y="-120" width="134" height="80" as="geometry" />
        </mxCell>
        <mxCell id="TXb0Ds1kzOKouGfnL_CO-17" style="edgeStyle=orthogonalEdgeStyle;rounded=0;orthogonalLoop=1;jettySize=auto;html=1;exitX=0.5;exitY=0;exitDx=0;exitDy=0;entryX=0.5;entryY=1;entryDx=0;entryDy=0;" parent="1" source="TXb0Ds1kzOKouGfnL_CO-15" target="TXb0Ds1kzOKouGfnL_CO-16" edge="1">
          <mxGeometry relative="1" as="geometry" />
        </mxCell>
        <mxCell id="TXb0Ds1kzOKouGfnL_CO-15" value="ALTERAR APARECE O ALERTA SE SESEJA REALIZAR E LEVA PARA A LISTAGEM DO ITEM PARA ALTERAR" style="rounded=1;whiteSpace=wrap;html=1;" parent="1" vertex="1">
          <mxGeometry x="510" y="-110" width="130" height="100" as="geometry" />
        </mxCell>
        <mxCell id="TXb0Ds1kzOKouGfnL_CO-16" value="&lt;div&gt;VALIDAR OS DADOS SE SEGUEM A MESMA REGRA DO CADASTRO&lt;/div&gt;APOS REALIZAR ALTERAÇAO E CONFIRMAR FECHA MODAL E VOLTA A PAGINA ANTERIOR" style="rounded=0;whiteSpace=wrap;html=1;" parent="1" vertex="1">
          <mxGeometry x="495" y="-400" width="160" height="150" as="geometry" />
        </mxCell>
        <mxCell id="TXb0Ds1kzOKouGfnL_CO-19" value="DELETAR APARECE A CONFIRMAÇAO E APOS DELETAR VOLTA A PAGINA ANTERIOR" style="rounded=1;whiteSpace=wrap;html=1;" parent="1" vertex="1">
          <mxGeometry x="140" y="-120" width="140" height="80" as="geometry" />
        </mxCell>
        <mxCell id="TXb0Ds1kzOKouGfnL_CO-21" value="" style="edgeStyle=orthogonalEdgeStyle;rounded=0;orthogonalLoop=1;jettySize=auto;html=1;exitX=0.5;exitY=0;exitDx=0;exitDy=0;entryX=0.5;entryY=1;entryDx=0;entryDy=0;" parent="1" source="TXb0Ds1kzOKouGfnL_CO-6" target="TXb0Ds1kzOKouGfnL_CO-20" edge="1">
          <mxGeometry relative="1" as="geometry">
            <mxPoint x="407" y="180" as="sourcePoint" />
            <mxPoint x="407" y="-40" as="targetPoint" />
          </mxGeometry>
        </mxCell>
        <mxCell id="TXb0Ds1kzOKouGfnL_CO-20" value="SIM" style="rounded=1;whiteSpace=wrap;html=1;fillColor=#008a00;fontColor=#ffffff;strokeColor=#005700;" parent="1" vertex="1">
          <mxGeometry x="382" y="150" width="50" height="20" as="geometry" />
        </mxCell>
        <mxCell id="TXb0Ds1kzOKouGfnL_CO-24" style="edgeStyle=orthogonalEdgeStyle;rounded=0;orthogonalLoop=1;jettySize=auto;html=1;exitX=1;exitY=0.5;exitDx=0;exitDy=0;entryX=0;entryY=0.5;entryDx=0;entryDy=0;" parent="1" source="TXb0Ds1kzOKouGfnL_CO-22" target="TXb0Ds1kzOKouGfnL_CO-26" edge="1">
          <mxGeometry relative="1" as="geometry">
            <mxPoint x="640" y="220" as="targetPoint" />
          </mxGeometry>
        </mxCell>
        <mxCell id="TXb0Ds1kzOKouGfnL_CO-22" value="REALIZAR AÇAO?" style="rounded=1;whiteSpace=wrap;html=1;" parent="1" vertex="1">
          <mxGeometry x="350" y="190" width="120" height="60" as="geometry" />
        </mxCell>
        <mxCell id="TXb0Ds1kzOKouGfnL_CO-25" value="NAO" style="rounded=1;whiteSpace=wrap;html=1;fillColor=#fa6800;fontColor=#000000;strokeColor=#C73500;" parent="1" vertex="1">
          <mxGeometry x="530" y="190" width="40" height="20" as="geometry" />
        </mxCell>
        <mxCell id="TXb0Ds1kzOKouGfnL_CO-26" value="FECHA MODAL" style="rounded=1;whiteSpace=wrap;html=1;" parent="1" vertex="1">
          <mxGeometry x="590" y="190" width="120" height="60" as="geometry" />
        </mxCell>
        <mxCell id="TXb0Ds1kzOKouGfnL_CO-31" style="edgeStyle=orthogonalEdgeStyle;rounded=0;orthogonalLoop=1;jettySize=auto;html=1;exitX=1;exitY=0.5;exitDx=0;exitDy=0;" parent="1" source="TXb0Ds1kzOKouGfnL_CO-28" target="TXb0Ds1kzOKouGfnL_CO-32" edge="1">
          <mxGeometry relative="1" as="geometry">
            <mxPoint x="770" y="-180" as="targetPoint" />
          </mxGeometry>
        </mxCell>
        <mxCell id="TXb0Ds1kzOKouGfnL_CO-28" value="VALIDAR?" style="rounded=1;whiteSpace=wrap;html=1;" parent="1" vertex="1">
          <mxGeometry x="520" y="-210" width="120" height="60" as="geometry" />
        </mxCell>
        <mxCell id="TXb0Ds1kzOKouGfnL_CO-29" value="SIM" style="rounded=1;whiteSpace=wrap;html=1;fillColor=#008a00;fontColor=#ffffff;strokeColor=#005700;" parent="1" vertex="1">
          <mxGeometry x="550" y="-230" width="50" height="20" as="geometry" />
        </mxCell>
        <mxCell id="TXb0Ds1kzOKouGfnL_CO-30" value="NAO" style="rounded=1;whiteSpace=wrap;html=1;fillColor=#fa6800;fontColor=#000000;strokeColor=#C73500;" parent="1" vertex="1">
          <mxGeometry x="670" y="-210" width="40" height="20" as="geometry" />
        </mxCell>
        <mxCell id="TXb0Ds1kzOKouGfnL_CO-32" value="VOLTA&amp;nbsp; A PAGINA DO MODAL PARA CONFERIR OS DADOS" style="rounded=1;whiteSpace=wrap;html=1;" parent="1" vertex="1">
          <mxGeometry x="750" y="-210" width="120" height="60" as="geometry" />
        </mxCell>
        <mxCell id="gk5JpqyUfW0jtWOqaY3z-1" value="BOTAO QUE ABRE UM MODAL PRA REGISTRAR MOVIMENTAÇAO" style="rounded=1;whiteSpace=wrap;html=1;" vertex="1" parent="1">
          <mxGeometry x="80" y="130" width="140" height="80" as="geometry" />
        </mxCell>
        <mxCell id="gk5JpqyUfW0jtWOqaY3z-4" value="PESQUISA DE ATIVOS" style="rounded=1;whiteSpace=wrap;html=1;" vertex="1" parent="1">
          <mxGeometry x="90" y="360" width="120" height="60" as="geometry" />
        </mxCell>
      </root>
    </mxGraphModel>
  </diagram>
</mxfile>
